<svg width="443" height="443" viewBox="0 0 443 443" fill="none" xmlns="http://www.w3.org/2000/svg">
<circle cx="221.5" cy="221.5" r="221.5" fill="#5C637C"/>
<path d="M140.19 229.49L140.435 112.38H121.08C113.403 112.38 107.687 114.095 103.93 117.525C100.173 120.792 98.295 124.712 98.295 129.285C98.295 133.695 99.4383 137.37 101.725 140.31C104.012 143.25 107.033 144.72 110.79 144.72C114.71 144.72 117.568 143.822 119.365 142.025C121.162 140.228 122.55 138.513 123.53 136.88C124.51 135.083 125.49 134.185 126.47 134.185C127.45 134.185 127.94 135.41 127.94 137.86C127.94 140.31 126.062 142.923 122.305 145.7C118.712 148.313 114.465 149.62 109.565 149.62C104.665 149.62 100.745 147.742 97.805 143.985C94.865 140.228 93.395 135.573 93.395 130.02C93.395 124.303 95.7633 119.158 100.5 114.585C105.4 109.848 112.342 107.48 121.325 107.48H163.955L228.39 220.425V153.05C228.39 114.503 241.702 95.23 268.325 95.23C278.288 95.23 286.863 98.3333 294.05 104.54C301.4 110.747 305.075 118.423 305.075 127.57C305.075 136.553 302.87 142.923 298.46 146.68C294.213 150.273 290.375 152.07 286.945 152.07C283.678 152.07 280.82 151.335 278.37 149.865C275.92 148.395 274.695 146.762 274.695 144.965C274.695 143.168 275.103 142.27 275.92 142.27C276.737 142.27 277.308 142.597 277.635 143.25C278.125 143.74 278.533 144.23 278.86 144.72C280.167 146.517 282.78 147.415 286.7 147.415C290.62 147.415 293.805 145.618 296.255 142.025C298.868 138.432 300.175 133.94 300.175 128.55C300.175 119.893 297.153 113.033 291.11 107.97C285.23 102.743 278.125 100.13 269.795 100.13C264.732 100.13 260.322 100.783 256.565 102.09C252.808 103.233 249.052 105.52 245.295 108.95C237.618 115.647 233.78 130.183 233.78 152.56V276.775C233.78 278.572 232.963 279.47 231.33 279.47C230.35 279.47 229.288 278.408 228.145 276.285L145.335 121.935V223.12C145.335 241.577 141.333 255.623 133.33 265.26C125.49 274.733 116.262 279.47 105.645 279.47C95.0283 279.47 86.045 276.367 78.695 270.16C71.5083 263.953 67.915 256.358 67.915 247.375C67.915 238.228 70.12 231.858 74.53 228.265C78.7767 224.508 82.5333 222.63 85.8 222.63C89.23 222.63 92.17 223.365 94.62 224.835C97.07 226.305 98.295 227.938 98.295 229.735C98.295 231.532 97.8867 232.43 97.07 232.43C96.2533 232.43 95.6 232.185 95.11 231.695C94.7833 231.205 94.4567 230.633 94.13 229.98C92.9867 228.347 90.2917 227.53 86.045 227.53C81.9617 227.53 78.695 229.327 76.245 232.92C73.795 236.35 72.57 240.76 72.57 246.15C72.57 254.97 75.755 261.993 82.125 267.22C88.6583 272.283 96.335 274.815 105.155 274.815C113.975 274.815 121.978 270.732 129.165 262.565C136.515 254.398 140.19 243.373 140.19 229.49Z" fill="#F6F8FB"/>
<path d="M280 352H304.75V183H336.5C344.333 183 350.167 184.75 354 188.25C357.833 191.583 359.75 195.583 359.75 200.25C359.75 204.75 358.583 208.5 356.25 211.5C353.917 214.5 350.833 216 347 216C343 216 340.083 215.083 338.25 213.25C336.417 211.417 335 209.667 334 208C333 206.167 332 205.25 331 205.25C330 205.25 329.5 206.5 329.5 209C329.5 211.5 331.417 214.167 335.25 217C338.917 219.667 343.25 221 348.25 221C353.25 221 357.25 219.083 360.25 215.25C363.25 211.417 364.75 206.667 364.75 201C364.75 195.167 362.333 189.917 357.5 185.25C352.5 180.417 345.417 178 336.25 178H230V183H280V352Z" fill="#F6F8FB"/>
</svg>
